<svg xmlns="http://www.w3.org/2000/svg" width="50" height="39.188" viewBox="0 0 50 39.188">
  <g id="AMG_2013_4C_logoHR" transform="translate(-55.4 -172.8)">
    <path id="Path_1" data-name="Path 1" d="M94.587,192.394A19.594,19.594,0,1,1,74.994,172.8a19.6,19.6,0,0,1,19.594,19.594" transform="translate(0 0)" fill="#009ddc"/>
    <path id="Path_2" data-name="Path 2" d="M121.787,192.394A19.594,19.594,0,1,1,102.194,172.8a19.6,19.6,0,0,1,19.594,19.594" transform="translate(-23.214 0)" fill="#fff"/>
    <path id="Path_3" data-name="Path 3" d="M151.587,192.394A19.594,19.594,0,1,1,131.994,172.8a19.6,19.6,0,0,1,19.594,19.594" transform="translate(-48.647 0)" fill="#5f6062"/>
    <path id="Path_4" data-name="Path 4" d="M248.062,266.543c4.03,0,5.789-2.916,5.789-6.39H251.1c-2.359,0-7.064,0-7.064,3.312-.015,2.4,2.066,3.078,4.03,3.078m5.789-1.6h-.088c-.791,2.872-3.195,4.147-6.111,4.147-3.634,0-7.152-1.553-7.152-5.628,0-5.554,5.422-5.862,9.819-5.862h3.517v-1.07c0-2.916-1.524-3.869-4.4-3.869-2.477,0-4.514.513-4.748,3.107h-3.517c.234-4.191,3.913-5.671,7.826-5.671,4.309,0,8.1.923,8.1,5.628v10.42H260.3v2.55h-6.463v-3.752Z" transform="translate(-157.974 -65.972)" fill="#fff"/>
    <path id="Path_5" data-name="Path 5" d="M398.144,266.147v-9.7c0-4.191-2.359-6.346-6.551-6.346a6.153,6.153,0,0,0-5.789,3.634c-1.114-2.55-3.034-3.634-5.862-3.634-2.755,0-5,1.319-5.745,3.634h-.073V250.5h-5.393a21.742,21.742,0,0,1,.865,2.55h1.246v13.1H368.76a20.5,20.5,0,0,1-1.07,2.213l-.19.337h9.775v-2.55h-3.151v-7.459c0-3.078,1.363-6.023,4.909-6.023,3.869,0,3.957,2.711,3.84,5.833v7.665h-3.151v2.55h9.584v-2.55h-3.151V258.5c0-3.078,1.275-5.833,4.836-5.833,3.8,0,3.913,3.034,3.913,5.833v7.665h-3.151v2.55h9.584v-2.55h-3.195Z" transform="translate(-266.362 -65.972)" fill="#5f6062" opacity="0"/>
    <path id="Path_6" data-name="Path 6" d="M595.57,265.913c4.03,0,5.95-3.034,5.95-6.712,0-3.517-1.876-6.551-5.628-6.551-4.309,0-6.39,2.389-6.39,6.551,0,3.8,1.993,6.712,6.067,6.712m12.413-12.852h-3.195v9.7c0,2.8.322,6.668-.953,9.189-1.48,2.828-4.953,3.752-8.383,3.752-3.986,0-8.705-.718-8.544-5.393h3.752c0,2.477,2.55,2.828,4.748,2.828,4.587,0,6.111-1.949,6.111-6.434v-2.037h-.073c-1.041,2.638-3.913,3.8-6.58,3.8-5.51,0-8.866-3.708-8.866-9.262,0-5.305,3.151-9.1,8.749-9.1,2.829,0,5.584,1.114,6.785,3.752l-.073-.088v.088h.073V250.5h6.448Z" transform="translate(-452.841 -65.972)" fill="#5f6062" opacity="0"/>
    <g id="Group_4" data-name="Group 4" transform="translate(98.354 205.026)" opacity="0">
      <path id="Path_7" data-name="Path 7" d="M349.467,393.911h0l-.249,1.275h.5Zm-.205-1.011h.425l.791,3.517h-.5l-.147-.762h-.689l-.147.762h-.5Z" transform="translate(-348.5 -392.871)" fill="#009ddc"/>
      <path id="Path_8" data-name="Path 8" d="M361.558,396.417h-.44L360.4,392.9h.528l.41,2.462h0l.41-2.462h.528Z" transform="translate(-358.656 -392.871)" fill="#009ddc"/>
      <rect id="Rectangle_7" data-name="Rectangle 7" width="0.498" height="3.517" transform="translate(3.869 0.029)" fill="#009ddc"/>
      <path id="Path_9" data-name="Path 9" d="M381.113,395.948h.234c.278,0,.4-.132.4-.44v-1.7c0-.279-.088-.44-.4-.44h-.234ZM380.6,392.9h.747a.811.811,0,0,1,.879.909v1.641a.842.842,0,0,1-.923.967h-.7Z" transform="translate(-375.896 -392.871)" fill="#009ddc"/>
      <path id="Path_10" data-name="Path 10" d="M399.6,392.9h.484l.645,1.861h.015l.645-1.861h.484v3.517h-.5v-2.14h-.015l-.5,1.524h-.249l-.5-1.524H400.1v2.14h-.5Z" transform="translate(-392.111 -392.871)" fill="#009ddc"/>
      <path id="Path_11" data-name="Path 11" d="M417.582,393.911h0l-.249,1.275h.5Zm-.205-1.011h.425l.791,3.517h-.5l-.147-.762h-.7l-.147.762h-.5Z" transform="translate(-406.62 -392.871)" fill="#009ddc"/>
      <path id="Path_12" data-name="Path 12" d="M432.013,394.483h.293c.352,0,.41-.205.41-.542s-.059-.557-.425-.557h-.278ZM431.5,392.9h.806c.6,0,.894.352.894,1.026a.891.891,0,0,1-.44.879l.542,1.612h-.528l-.469-1.509h-.293v1.509h-.5V392.9Z" transform="translate(-419.336 -392.871)" fill="#009ddc"/>
      <path id="Path_13" data-name="Path 13" d="M445.5,392.9h.5v1.612h.015l.733-1.612h.5l-.674,1.407.806,2.11h-.528l-.572-1.553-.278.513v1.041h-.5Z" transform="translate(-431.285 -392.871)" fill="#009ddc"/>
      <path id="Path_14" data-name="Path 14" d="M459.6,392.9h1.509v.484h-1v1.026h.865v.484h-.865v1.026h1v.5H459.6Z" transform="translate(-443.318 -392.871)" fill="#009ddc"/>
      <path id="Path_15" data-name="Path 15" d="M471.286,393.384H470.7V392.9h1.671v.484H471.8v3.034h-.513Z" transform="translate(-452.792 -392.871)" fill="#009ddc"/>
      <rect id="Rectangle_8" data-name="Rectangle 8" width="0.498" height="3.517" transform="translate(19.784 0.029)" fill="#009ddc"/>
      <path id="Path_16" data-name="Path 16" d="M489.2,392.9h.484l.762,2.125h.015V392.9h.5v3.517h-.469l-.777-2.11H489.7v2.11h-.5Z" transform="translate(-468.58 -392.871)" fill="#009ddc"/>
      <path id="Path_17" data-name="Path 17" d="M503.3,393.565a.834.834,0,0,1,.85-.865.825.825,0,0,1,.85.865v.176h-.5v-.176a.319.319,0,0,0-.337-.352.327.327,0,0,0-.337.352v1.861a.337.337,0,1,0,.674,0v-.659h-.4v-.44h.909v1.114a.85.85,0,1,1-1.7,0v-1.876Z" transform="translate(-480.614 -392.7)" fill="#009ddc"/>
      <path id="Path_18" data-name="Path 18" d="M522.2,393.565a.834.834,0,0,1,.85-.865.825.825,0,0,1,.85.865v.176h-.5v-.176a.319.319,0,0,0-.337-.352.327.327,0,0,0-.337.352v1.861a.337.337,0,1,0,.674,0v-.659h-.4v-.44h.909v1.114a.85.85,0,1,1-1.7,0v-1.876Z" transform="translate(-496.744 -392.7)" fill="#009ddc"/>
      <path id="Path_19" data-name="Path 19" d="M536.313,394.483h.293c.352,0,.41-.205.41-.542s-.059-.557-.44-.557h-.264ZM535.8,392.9h.806c.6,0,.894.352.894,1.026a.891.891,0,0,1-.44.879l.542,1.612h-.528l-.469-1.509H536.3v1.509h-.5Z" transform="translate(-508.351 -392.871)" fill="#009ddc"/>
      <path id="Path_20" data-name="Path 20" d="M549.8,395.426a.337.337,0,1,0,.674,0v-1.861a.337.337,0,1,0-.674,0Zm-.5-1.861a.834.834,0,0,1,.85-.865.825.825,0,0,1,.85.865v1.861a.85.85,0,1,1-1.7,0Z" transform="translate(-519.873 -392.7)" fill="#009ddc"/>
      <path id="Path_21" data-name="Path 21" d="M564.541,395.626a.821.821,0,0,1-1.641,0V392.9h.5v2.682c0,.249.132.366.308.366s.308-.117.308-.366V392.9h.5v2.726Z" transform="translate(-531.48 -392.871)" fill="#009ddc"/>
      <path id="Path_22" data-name="Path 22" d="M576.9,394.571h.234c.41,0,.41-.249.41-.6s0-.6-.4-.6h-.264v1.2Zm-.5-1.671h.747a.812.812,0,0,1,.659.249,1.061,1.061,0,0,1,.234.821,1.256,1.256,0,0,1-.147.7.765.765,0,0,1-.733.366h-.249v1.378h-.5V392.9Z" transform="translate(-543.001 -392.871)" fill="#009ddc"/>
    </g>
  </g>
</svg>
